<svg width="52" height="48" viewBox="0 0 96 92" fill="none" xmlns="http://www.w3.org/2000/svg">
<path d="M38.9334 58.9566C39.4197 59.2588 39.9779 59.4384 40.5559 59.4786C41.134 59.5188 41.7133 59.4184 42.2401 59.1866L65.5201 48.9644C66.1284 48.7015 66.6445 48.2758 67.0066 47.7387C67.3686 47.2015 67.5612 46.5756 67.5612 45.9361C67.5612 45.2966 67.3686 44.6707 67.0066 44.1335C66.6445 43.5963 66.1284 43.1707 65.5201 42.9078L42.2401 32.6855C41.7063 32.4518 41.1194 32.3517 40.5342 32.3947C39.9491 32.4377 39.3849 32.6224 38.8945 32.9314C38.4042 33.2404 38.0038 33.6637 37.7307 34.1615C37.4577 34.6594 37.321 35.2155 37.3334 35.7778V56.2222C37.3423 56.7694 37.4932 57.306 37.7725 57.7834C38.0519 58.2607 38.4508 58.664 38.9334 58.9566ZM41.6001 36.9789L62.1601 46L41.6001 54.97V36.9789Z" fill="#021E72"/>
<path d="M21.3334 17.8889H26.6667V25.5556H21.3334V17.8889Z" fill="#021E72"/>
<path d="M37.3334 17.8889H42.6667V25.5556H37.3334V17.8889Z" fill="#021E72"/>
<path d="M53.3334 17.8889H58.6667V25.5556H53.3334V17.8889Z" fill="#021E72"/>
<path d="M69.3334 17.8889H74.6667V25.5556H69.3334V17.8889Z" fill="#021E72"/>
<path d="M21.3334 66.4443H26.6667V74.111H21.3334V66.4443Z" fill="#021E72"/>
<path d="M37.3334 66.4443H42.6667V74.111H37.3334V66.4443Z" fill="#021E72"/>
<path d="M53.3334 66.4443H58.6667V74.111H53.3334V66.4443Z" fill="#021E72"/>
<path d="M69.3334 66.4443H74.6667V74.111H69.3334V66.4443Z" fill="#021E72"/>
<path d="M81.4551 9.04919H13.8303C12.5493 9.04919 11.3206 9.58767 10.4148 10.5462C9.50891 11.5046 9 12.8046 9 14.1601V75.4913C9 76.8468 9.50891 78.1468 10.4148 79.1053C11.3206 80.0637 12.5493 80.6022 13.8303 80.6022H81.4551C82.7362 80.6022 83.9649 80.0637 84.8707 79.1053C85.7766 78.1468 86.2855 76.8468 86.2855 75.4913V14.1601C86.2855 12.8046 85.7766 11.5046 84.8707 10.5462C83.9649 9.58767 82.7362 9.04919 81.4551 9.04919ZM13.8303 75.4913V14.1601H81.4551V75.4913H13.8303Z" fill="#021E72"/>
</svg>
