<svg width="1280" height="775" viewBox="0 0 1280 775" fill="none" xmlns="http://www.w3.org/2000/svg">
<path d="M1275.65 776.488H482.655C293.486 776.488 624.144 308.332 260.795 164.988C124.309 111.143 -148.49 222.488 -148.49 94.4882C-150.671 60.4278 -160.849 33.0495 -177.736 11.4171C-440.266 18.1091 -698.501 26.4219 -913.889 36.6432C-1221.71 118.337 -1497.07 207.855 -1460.3 101.919C-1495.59 74.4323 -1260.09 53.0723 -913.889 36.6432C-611.367 -43.6439 -277.493 -116.373 -177.736 11.4171C537.211 -6.80722 1284.01 -13.0117 1284.01 -13.0117C1284.01 -13.0117 1457.66 776.488 1275.65 776.488Z" fill="url(#paint0_linear_996_124)"/>
<defs>
<linearGradient id="paint0_linear_996_124" x1="-359.5" y1="-240.5" x2="1064.01" y2="231.002" gradientUnits="userSpaceOnUse">
<stop stop-color="#C71EFA"/>
<stop offset="1" stop-color="#1C1254"/>
</linearGradient>
</defs>
</svg>
