<svg width="64" height="59" viewBox="0 0 64 59" fill="none" xmlns="http://www.w3.org/2000/svg">
<path d="M23.082 26.3393C24.4733 26.3393 25.8076 25.7843 26.7914 24.7964C27.7752 23.8084 28.3279 22.4685 28.3279 21.0714C28.3279 19.6743 27.7752 18.3344 26.7914 17.3465C25.8076 16.3586 24.4733 15.8036 23.082 15.8036C21.6907 15.8036 20.3563 16.3586 19.3725 17.3465C18.3888 18.3344 17.8361 19.6743 17.8361 21.0714C17.8361 22.4685 18.3888 23.8084 19.3725 24.7964C20.3563 25.7843 21.6907 26.3393 23.082 26.3393V26.3393Z" stroke="#021E72" stroke-width="4" stroke-linecap="round" stroke-linejoin="round"/>
<path d="M54.5574 44.25L40.4517 31.6071L27.6284 42.9857L18.6521 35.4L8.39343 42.9857" stroke="#021E72" stroke-width="4" stroke-linecap="round" stroke-linejoin="round"/>
<path d="M54.3067 4.21429H9.49582C8.64692 4.21429 7.83279 4.57065 7.23253 5.20498C6.63227 5.8393 6.29504 6.69963 6.29504 7.59669V48.1855C6.29504 49.0825 6.63227 49.9429 7.23253 50.5772C7.83279 51.2115 8.64692 51.5679 9.49582 51.5679H54.3067C55.1556 51.5679 55.9698 51.2115 56.57 50.5772C57.1703 49.9429 57.5075 49.0825 57.5075 48.1855V7.59669C57.5075 6.69963 57.1703 5.8393 56.57 5.20498C55.9698 4.57065 55.1556 4.21429 54.3067 4.21429ZM9.49582 48.1855V7.59669H54.3067V48.1855H9.49582Z" fill="#021E72"/>
</svg>
