<svg width="27" height="25" viewBox="0 0 27 25" fill="none" xmlns="http://www.w3.org/2000/svg">
<path d="M10.2409 23.75C10.8392 23.75 11.3243 23.265 11.3243 22.6667C11.3243 22.0684 10.8392 21.5833 10.2409 21.5833C9.64262 21.5833 9.15759 22.0684 9.15759 22.6667C9.15759 23.265 9.64262 23.75 10.2409 23.75Z" stroke="#FBFBFB" stroke-width="2" stroke-linecap="round" stroke-linejoin="round"/>
<path d="M22.1576 23.75C22.7559 23.75 23.2409 23.265 23.2409 22.6667C23.2409 22.0684 22.7559 21.5833 22.1576 21.5833C21.5593 21.5833 21.0743 22.0684 21.0743 22.6667C21.0743 23.265 21.5593 23.75 22.1576 23.75Z" stroke="#FBFBFB" stroke-width="2" stroke-linecap="round" stroke-linejoin="round"/>
<path d="M1.57428 1H5.90761L8.81095 15.5058C8.91001 16.0046 9.18135 16.4526 9.57745 16.7715C9.97356 17.0904 10.4692 17.2597 10.9776 17.25H21.5076C22.016 17.2597 22.5117 17.0904 22.9078 16.7715C23.3039 16.4526 23.5752 16.0046 23.6743 15.5058L25.4076 6.41667H6.99095" stroke="#FBFBFB" stroke-width="2" stroke-linecap="round" stroke-linejoin="round"/>
</svg>
