<svg width="9" height="17" viewBox="0 0 9 17" fill="none" xmlns="http://www.w3.org/2000/svg">
<path d="M6.08318 11.7439L5.67235 12.1689V1.41664C5.67235 1.04092 5.5231 0.680596 5.25743 0.414924C4.99176 0.149253 4.63143 0 4.25571 0C3.88 0 3.51967 0.149253 3.254 0.414924C2.98833 0.680596 2.83907 1.04092 2.83907 1.41664V12.1689L2.42825 11.7439C2.16149 11.4772 1.79969 11.3273 1.42244 11.3273C1.04518 11.3273 0.68338 11.4772 0.416622 11.7439C0.149863 12.0107 0 12.3725 0 12.7498C0 13.127 0.149863 13.4888 0.416622 13.7556L3.2499 16.5888C3.38463 16.7178 3.5435 16.8189 3.71739 16.8863C3.88696 16.9613 4.07032 17 4.25571 17C4.44111 17 4.62446 16.9613 4.79404 16.8863C4.96793 16.8189 5.1268 16.7178 5.26153 16.5888L8.09481 13.7556C8.22689 13.6235 8.33167 13.4667 8.40315 13.2941C8.47463 13.1215 8.51143 12.9366 8.51143 12.7498C8.51143 12.563 8.47463 12.378 8.40315 12.2054C8.33167 12.0328 8.22689 11.876 8.09481 11.7439C7.96272 11.6119 7.80591 11.5071 7.63333 11.4356C7.46076 11.3641 7.27579 11.3273 7.08899 11.3273C6.90219 11.3273 6.71723 11.3641 6.54465 11.4356C6.37207 11.5071 6.21526 11.6119 6.08318 11.7439Z" fill="white"/>
</svg>
