<svg width="16" height="17" viewBox="0 0 16 17" fill="none" xmlns="http://www.w3.org/2000/svg">
<path d="M7.95455 0.333333C3.56818 0.333333 0 3.985 0 8.5C0 13.015 3.55682 16.6667 7.95455 16.6667C12.3409 16.6667 15.9091 13.015 15.9091 8.5C15.9091 3.985 12.3523 0.333333 7.95455 0.333333ZM7.95455 2.84167C10.9886 2.84167 13.4659 5.37333 13.4659 8.5C13.4659 11.6267 11 14.1583 7.95455 14.1583C4.90909 14.1583 2.44318 11.6267 2.44318 8.5C2.44318 5.37333 4.90909 2.84167 7.95455 2.84167ZM6.81818 5V9.305L10.4432 11.4517L11.2955 9.935L8.52273 8.29V5" fill="#F2F2F2"/>
</svg>
