<svg width="30" height="31" viewBox="0 0 30 31" fill="none" xmlns="http://www.w3.org/2000/svg">
<ellipse cx="15" cy="15.5" rx="15" ry="15.5" fill="#220970"/>
<path d="M12.8384 19.8574C12.8384 18.7374 12.9775 17.847 13.2558 17.1861C13.5341 16.5183 14.0836 15.7878 14.9045 14.9948C15.7254 14.1948 16.2436 13.6243 16.4593 13.2835C16.8001 12.7757 16.9706 12.2226 16.9706 11.6243C16.9706 10.8313 16.7723 10.2261 16.3758 9.8087C15.9862 9.3913 15.4123 9.18261 14.6541 9.18261C13.9306 9.18261 13.3462 9.38783 12.901 9.79826C12.4628 10.2017 12.2436 10.7548 12.2436 11.4574H9.1758C9.18971 9.9687 9.69406 8.78956 10.6888 7.92C11.6906 7.05043 13.0123 6.61565 14.6541 6.61565C16.3445 6.61565 17.6628 7.04696 18.6088 7.90957C19.5619 8.76522 20.0384 9.96522 20.0384 11.5096C20.0384 12.88 19.3984 14.2296 18.1184 15.5583L16.5636 17.0922C16.0071 17.7252 15.7184 18.647 15.6975 19.8574H12.8384ZM12.6193 23.7809C12.6193 23.287 12.7758 22.887 13.0888 22.5809C13.4019 22.2748 13.8228 22.1217 14.3515 22.1217C14.8871 22.1217 15.3115 22.2783 15.6245 22.5913C15.9375 22.9043 16.0941 23.3009 16.0941 23.7809C16.0941 24.247 15.941 24.6365 15.6349 24.9496C15.3358 25.2626 14.908 25.4191 14.3515 25.4191C13.7949 25.4191 13.3671 25.2626 13.068 24.9496C12.7688 24.6365 12.6193 24.247 12.6193 23.7809Z" fill="white"/>
</svg>
